<svg t="1666233777654" class="icon" viewBox="0 0 1024 1024" version="1.1" xmlns="http://www.w3.org/2000/svg" p-id="13609" width="200" height="200"><path d="M913.664 329.616c-10.16-8.592-16.016-19.8-23.296-30-14.424-20.2-28.928-40.64-40.496-62.48-12.352-23.36-29.016-42-49.344-58.128-13.176-10.48-26.536-20.768-39-32.04-12.96-11.76-28.72-20.024-40.112-33.92-7.336-8.984-18-9.376-28.64-4.512C685.2 112 680 117.44 675.568 124.56c-9.32 14.936-18.704 29.984-29.76 43.584-19.232 23.664-38.128 47.52-54.96 72.928-12.44 18.744-25.472 36.96-40.344 53.864-5.72 6.504-9.872 14.504-14.192 22.12-4.112 7.2-2.064 13.936 3.08 19.92 5.464 6.304 11.904 10.736 20.624 10.784 12.032 0.08 24.064 0.136 36.08 0.216 4.816 0.032 9.68-0.296 14.4 0.4 1.76 0.264 4.136 2.8 4.496 4.664 0.768 3.84 0.768 7.952 0.48 11.92-1.32 17.568-4.176 35.104-4.112 52.664 0.08 48.04-2.52 96.08 2.824 144.184 4.032 36.56 3.96 73.6 4.864 110.456 0.72 29.68 0.16 59.36 0.16 89.04h0.272c0 12.848-0.08 25.696 0.016 38.528 0.16 24.84 0.256 49.712 0.704 74.56 0.208 12.064 6.912 19.464 18.52 21.36 2.36 0.384 4.8 0.448 7.2 0.6 18.4 1.136 36.744 2.536 55.144 3.312 12.8 0.52 25.656 0.56 38.48 0.16 12-0.384 23.984-1.312 35.888-2.56 12.56-1.28 25.04-3.824 37.624-0.464 0.752 0.2 1.6-0.024 2.4-0.08 9.648-0.664 16.288-6.832 17.28-16.776 0.56-5.544 0.52-11.216 0.264-16.8-1.44-32.8-0.8-65.576-4.936-98.4-3.96-31.68-6.08-63.84-4.96-95.976 0.24-7.224-0.24-14.456-0.272-21.664-0.128-34.52-3.44-68.72-8.976-102.8-2.96-18.144-5.424-36.536-5.944-54.864-1.064-36.096-0.656-72.208-0.848-108.288 0-4 0.184-8.024 0.496-12.032 0.36-4.696 3.304-7.536 7.576-7.464 3.184 0.08 6.504-0.08 9.576 0.64 22.176 5.24 44.696 3.064 67.096 3.168 4.68 0.032 9.6-0.936 14-2.624 13.856-5.32 19.024-23.856 7.88-33.28z m-80.848-8.4c-6.12 1.76-12.288 3.52-18.536 4.544-1.92 0.32-4.384-1.248-6.24-2.48-1.968-1.296-3.336-3.488-5.28-4.816-5.168-3.584-11.024-3.584-15.52 0.24-7.176 6.104-12.448 13.976-20.256 19.824-6.32 4.736-6.768 13.976-6.656 22.288 0.24 19.256 0.104 38.528 0.104 57.76-0.56 0.048-1.12 0.096-1.704 0.112 2.144 36.8 4.064 73.6 6.624 110.4 1 14.36 2.72 28.768 5.52 42.864 3.152 15.872 3.648 31.84 3.952 47.872 0.376 19.216 0.344 38.4 2.696 57.6 1.808 15.04 0.72 30.464 0.8 45.704 0.16 22.456-0.176 44.856 4.56 67.064 2 9.304 1.28 19.184 1.92 28.776 0.664 9.576 1.464 19.144 2.32 28.696 0.6 6.72-1.136 9.32-7.28 9.472-12.816 0.36-25.68 0.224-38.48 0.832-13.6 0.624-27.184 1.88-40.76 2.864-4.576 0.352-8.68-2.256-8.72-6.112-0.296-12.832-0.4-25.648-0.32-38.48 0.032-4.464 3.04-7.296 6.88-9.016 8.8-3.92 17.552-7.888 26.48-11.464 7-2.8 12.16-7.6 16.56-13.44 4.768-6.4 3.792-13.88-2.2-19.376-4.944-4.52-10.656-7.296-17.336-7.232-4.8 0.056-9.616 0.504-14.336 1.28-5.384 0.92-11.896 4.904-15.76 3.064-6.48-3.072-2.976-11.416-3.84-17.472-0.336-2.4-0.176-4.8-0.16-7.232 0.224-25.176-5.168-24.28 20.04-37.904 4.184-2.272 8.04-5.36 11.52-8.6 6.912-6.4 9.016-15.392 5.544-21.704-3.712-6.856-14.08-11.296-22.752-9.6-2.336 0.48-4.56 1.648-6.88 2.144-3.784 0.8-8.136 2.64-10.672-2-3.44-6.224-2.784-14.32 1.784-17.64 6.464-4.72 13.736-8.296 20.04-13.184 4.96-3.84 9.88-8.36 13.104-13.6 5.496-8.856 1.624-19.224-7.408-24.56-9.816-5.792-19.44-6.192-29.816-1.336-4.32 2-8.104-0.784-8.768-5.12-0.368-2.368-0.344-4.824-0.856-7.168-2.08-9.76 1.304-17.152 9.152-23.04 6.4-4.824 12.64-9.896 18.72-15.104 6.72-5.68 13.456-11.4 19.68-17.64 2.68-2.72 4.688-6.536 5.88-10.216 3.12-9.472-1.72-17.728-11.28-20.448-6.464-1.864-12.904-1.392-18.72 1.6-8.536 4.352-16.72 9.36-25 14.2-4.44 2.584-6.824 1.424-8.216-4.184-0.776-3.12-1.16-6.368-2.2-9.392-2.864-8.128 0.24-14.2 6.64-18.8 11.68-8.416 23.52-16.64 35.472-24.696 6.048-4.08 11.808-8.184 14.672-15.36 1.8-4.56 1.44-9.92-2.024-13.32-5.976-5.888-12.64-9.584-21.576-6.96-8.56 2.504-16.48 5.872-23.896 10.92-10.84 7.416-11.728 7.12-12.776-7.248-1.424-19.16-2.608-38.416-2.272-57.6 0.216-12.456-3.36-23.72-6.88-35.072-2.864-9.328-9.728-14.504-19.816-14.504-10.416-0.016-20.856 0.128-31.264 0.064-3.728-0.024-5.976-3.552-4.048-6.176 20.024-27.088 39.68-54.296 66.56-75.56 17.6-13.92 33.616-29.76 50.336-44.72 4.608-4.08 7.968-4 12.24 0.776 3.72 4.184 7.2 8.616 10.64 13.04 12.816 16.44 26.664 32 40.272 47.8 18.24 21.2 33.776 44.672 54.624 63.744 2.816 2.56 4.264 6.68 6 10.264 0.448 1-0.16 3.6-0.776 3.808z m-279.76 529.656c-1.52-30.4-3.248-60.8-3.712-91.2-0.6-40.88-0.144-81.76-0.144-122.64h-0.384c0-42.48 0-84.944-0.016-127.424 0-4.8-0.112-9.6-0.2-14.424-0.16-7.728-3.6-13.8-9.472-18.64-6.96-5.76-14.616-9.784-24-9.376-18.504 0.8-36.784-0.864-54.928-4.32-24.24-4.608-49.28-5.824-71.84-17.408-4.512-2.32-9.256-1.232-13.904 0.72-7.168 3.04-11.44 8.384-13.92 15.56-5.04 14.432-8.24 29.328-9.072 44.464-2.08 38.368-3.952 76.768-4.944 115.184-0.936 35.24-0.936 70.52-0.784 105.776 0.256 52.032-2.136 104.104 4.8 155.968 1.144 8.696 3.64 14.512 11.76 19.04 11.856 6.624 23.968 8.448 37 6.8 7.12-0.904 14.24-2.8 21.36-2.816 23.264-0.144 46.352-1.304 69.464-4.176 12.64-1.56 25.6-0.16 38.4-0.56 18.432-0.536 30.96-16.016 27.904-34.216-0.896-5.488-3.08-10.84-3.36-16.32z m-52.64-167.52h-0.64v146.776c0 2.416 0.08 4.816 0 7.224-0.208 6.576-2.2 9.088-7.92 9.824-2.384 0.304-4.768 0.448-7.184 0.6-20.76 1.256-41.56 2.304-62.32 3.864-6.304 0.48-12.512 2.24-18.744 3.496-3.568 0.72-5.64-0.88-5.728-4.864-0.112-4-0.224-8 0-12 0.448-8.744 1.088-17.472 1.664-26.216 7.224-4.848 14.464-9.712 21.704-14.544 5.976-4 12.264-7.664 17.92-12.08 6.656-5.224 8.704-13.336 5.632-19.24-3.816-7.336-12-11.64-20.192-9.496-6.12 1.6-11.888 4.624-17.816 6.96-1.48 0.576-3.096 1.44-4.512 1.232-1.2-0.16-3.072-1.576-3.2-2.608-0.608-4.736-0.752-9.52-0.912-14.296-0.16-5.2 1.824-9.2 6.48-11.92 9.68-5.68 19.296-11.44 28.88-17.264 5.464-3.328 11.176-6.376 16.16-10.32 7.824-6.184 9.936-17.136 5.792-26.08-3.776-8.08-14.848-13.024-24.464-9.84-9.088 2.976-17.76 7.16-26.608 10.832-2.944 1.2-5.8-1.36-6.12-5.04-0.448-5.312 1.12-9.6 5.92-12.024 12.896-6.48 25.92-12.672 38.832-19.12 5.72-2.848 11.472-5.736 16.84-9.176 5.088-3.28 7.184-8.432 6.528-14.536-0.416-4.192-2.184-7.736-5.896-9.904-8.752-5.104-17.872-7.336-27.328-1.984-9.728 5.52-19.304 11.312-28.912 17.016-3.36 1.968-5.696 0.52-6.432-3.44-1.92-10.032 1.296-16.72 10.928-21.16 10.176-4.696 19.736-10.664 29.52-16.128 2.8-1.576 5.64-3.104 8.184-5.024 5.408-4.08 9.12-9.56 7.952-16.384-1.28-7.6-6.128-13.44-13.824-15.064-5.312-1.12-11.12-0.848-16.56-0.08-3.816 0.512-7.472 2.72-11.088 4.44-18.512 8.88-18.528 8.896-19.16-10.4-0.368-11.232-0.496-22.448-0.912-33.68-0.4-10.88 4.44-11.456 11.32-10.376 10.28 1.616 20.448 3.84 30.72 5.456 18.944 2.984 37.936 5.776 56.92 8.504 6.2 0.904 8.4 2.752 8.44 9.232 0.16 20.048 0.12 40.096 0.12 60.16 0.016 32.88 0 65.76 0 98.64zM307.2 854.896c-2.136-23.896-2.864-47.984-6.32-71.68-3.472-23.944-3.464-47.824-3.32-71.816 0.064-9.6 0.32-19.224 0.128-28.824-0.128-5.72-4.656-10.96-10.32-11.552-6.32-0.64-12.752-0.432-19.144-0.432-33.576-0.08-67.096 0.8-100.08-8.496-11.2-3.16-23.84-2.032-35.784-1.576-11.704 0.448-19.36 7.56-21.92 18.88-2.976 13.2-6.88 26.184-6.016 40.16 0.864 13.544 0 27.2 0.08 40.832 0.184 31.24 0.504 62.456 0.744 93.704 0.104 12.272 2.288 23.64 10.784 33.44 3.504 4.04 5.552 9.6 7.328 14.8 2.976 8.72 8.984 12.96 17.792 13.52 5.6 0.36 11.224 0.272 16.816 0.16 21.616-0.4 43.24-0.88 67.92-1.416 19.36 0 41.8 0.048 64.224-0.048a85.472 85.472 0 0 0 14.24-1.12c4.32-0.784 6.832-4 7.2-8.4a53.44 53.44 0 0 0-0.04-9.6c-1.32-13.52-3.04-27-4.272-40.512z m-28.208 7.664c-0.36 0.52-1.392 0.72-2.16 0.76-19.2 0.976-38.4 1.92-59.232 2.96-0.768 0-3.2 0.16-5.6-0.032-4.32-0.376-8.656-1.016-12.976-1.544 3.096-2.456 6.448-4.672 9.264-7.424 3.92-3.904 8.024-7.84 11.008-12.44 3.544-5.44 0.36-13.736-5.52-16.128-7.52-3.04-15-5.36-23.248-1.76-7.336 3.168-15.016 5.52-22.528 8.288-5.04 1.84-9.256-1.936-8.536-7.408 0.744-5.984 3.416-10.528 8.688-13.6 10.36-6.04 20.608-12.352 31.096-18.264 5.736-3.2 10.664-7.016 14.04-12.76 2.744-4.72 1.44-12.184-3.184-15.104-7.72-4.848-15.76-7.84-24.92-3.44-7.2 3.44-14.536 6.64-21.92 9.68-0.88 0.368-3.28-0.912-3.68-1.92-0.4-1.12 0.32-3.52 1.312-4.064 8.36-4.64 17.136-8.616 25.344-13.536 6.104-3.68 12.16-7.824 17.088-12.88 5.88-6 1.392-17.92-6.92-18.664-6.272-0.56-12.784 0.24-18.976 1.44-5.456 1.024-10.608 3.568-16 5.08-0.768 0.216-2.76-1.496-3.04-2.624a21.376 21.376 0 0 1-0.536-7.144c0.344-5.136 3.024-7.8 7.2-7.52 1.6 0.112 3.248 0.112 4.784 0.48 26.64 6.24 53.624 9.144 80.992 8.832 5.784-0.064 8.976 3.136 9.12 8.64 0.48 16.816-0.144 33.632 2.52 50.416 2.744 17.36 4.616 34.896 6.48 52.384 1.056 10.016 5.36 18.28 11.536 25.888 0.368 0.464-0.8 2.4-1.568 3.416z" p-id="13610" fill="#fafaf9"></path></svg>